<svg xmlns="http://www.w3.org/2000/svg" version="1.1" xmlns:xlink="http://www.w3.org/1999/xlink" xmlns:svgjs="http://svgjs.dev/svgjs" width="37" height="37"><svg width="37" height="37" viewBox="0 0 37 37" fill="none" xmlns="http://www.w3.org/2000/svg">
<g clip-path="url(#clip0_15_90)">
<path d="M31.933 22.2674V16.9832H25.6636V12.6853H4.7655V31.8495C4.7655 34.181 6.63999 36.0769 8.94512 36.0769H21.484C23.7891 36.0769 25.6636 34.181 25.6636 31.8495V29.629C29.1988 29.1107 31.933 25.9843 31.933 22.2674ZM29.8432 22.2674C29.8432 24.8191 28.0453 27.0242 25.6636 27.5152V19.0969H29.8432V22.2674ZM9.93081 1.57083L8.53287 0C5.60428 2.66791 7.17979 4.71454 8.12062 5.93654C9.03902 7.13064 9.38286 7.57755 8.2063 8.76756L9.68387 10.262C12.1655 7.752 10.6655 5.80239 9.76955 4.63823C8.80838 3.38932 8.44816 2.92184 9.93081 1.57083ZM15.1553 1.57083L13.7574 0C10.8288 2.66791 12.4043 4.71454 13.3451 5.93654C14.2635 7.13064 14.6074 7.57755 13.4308 8.76756L14.9084 10.262C17.39 7.752 15.89 5.80239 14.9941 4.63823C14.0329 3.38932 13.6727 2.92184 15.1553 1.57083ZM20.3799 1.57083L18.9819 0C16.0533 2.66791 17.6288 4.71454 18.5697 5.93654C19.4881 7.13064 19.8319 7.57755 18.6553 8.76756L20.1329 10.262C22.6146 7.752 21.1146 5.80239 20.2186 4.63823C19.2574 3.38932 18.8972 2.92184 20.3799 1.57083Z" fill="#64099B"></path>
</g>
<defs>
<clipPath id="SvgjsClipPath1001">
<rect width="35.6691" height="36.0769" fill="white" transform="translate(0.514648)"></rect>
</clipPath>
</defs>
</svg><style>@media (prefers-color-scheme: light) { :root { filter: none; } }
@media (prefers-color-scheme: dark) { :root { filter: none; } }
</style></svg>